<?xml version="1.0" standalone="no"?>
<!DOCTYPE svg PUBLIC "-//W3C//DTD SVG 20010904//EN"
 "http://www.w3.org/TR/2001/REC-SVG-20010904/DTD/svg10.dtd">
<svg version="1.0" xmlns="http://www.w3.org/2000/svg"
 width="1000.000000pt" height="1000.000000pt" viewBox="0 0 1000.000000 1000.000000"
 preserveAspectRatio="xMidYMid meet">
<metadata>
Created by potrace 1.11, written by Peter Selinger 2001-2013
</metadata>
<g transform="translate(0.000000,1000.000000) scale(0.100000,-0.100000)"
fill="#000000" stroke="none">
<path d="M4950 9901 c0 -7 -11 -9 -26 -7 -24 5 -62 -9 -75 -27 -3 -5 -10 -9
-15 -9 -20 -1 -61 -23 -86 -47 -16 -13 -28 -21 -28 -17 0 8 -18 -6 -62 -46
-16 -16 -33 -28 -38 -28 -5 0 -80 -71 -167 -158 -87 -87 -170 -165 -185 -174
-14 -10 -29 -27 -33 -38 -4 -11 -10 -18 -13 -16 -4 2 -294 -282 -644 -632
-350 -351 -642 -636 -647 -634 -6 2 -11 -3 -11 -11 0 -14 -305 -327 -320 -327
-10 0 -2364 -2356 -2369 -2371 -2 -7 -14 -22 -27 -34 -13 -12 -24 -25 -24 -28
0 -9 -63 -101 -72 -105 -4 -2 -4 -10 -1 -18 3 -8 0 -14 -6 -14 -7 0 -11 -6
-10 -12 2 -19 -12 -58 -21 -58 -4 0 -6 -17 -5 -37 1 -21 -3 -45 -8 -54 -6 -9
-7 -25 -2 -35 4 -11 8 -35 8 -54 1 -19 4 -37 7 -40 5 -5 29 -67 33 -85 1 -5 9
-15 17 -22 8 -7 11 -13 7 -13 -8 0 2 -15 39 -54 11 -13 19 -27 17 -33 -2 -5 8
-20 22 -33 14 -13 25 -26 25 -30 0 -4 40 -47 89 -96 50 -48 88 -90 86 -92 -5
-5 150 -162 160 -162 10 0 105 -92 105 -103 0 -5 830 -840 1845 -1855 1015
-1015 1845 -1849 1845 -1854 0 -4 4 -8 9 -8 5 0 65 -54 133 -120 151 -148 167
-162 178 -155 4 3 11 -2 14 -10 3 -9 17 -20 31 -25 14 -5 25 -14 25 -20 0 -6
4 -9 9 -5 5 3 12 1 16 -5 4 -6 11 -8 16 -5 5 4 9 3 9 -2 0 -11 49 -33 72 -33
10 0 18 -4 18 -9 0 -5 18 -7 40 -5 25 2 40 0 40 -7 0 -7 11 -9 33 -5 17 4 51
8 75 9 23 1 42 5 42 8 0 6 24 15 45 18 6 1 110 56 140 74 11 7 26 20 33 30 7
9 19 17 25 17 7 0 38 27 70 60 32 33 62 60 67 60 11 0 280 270 280 282 0 4 4
8 9 8 7 0 367 357 507 503 17 17 86 85 153 151 66 65 121 123 121 127 0 5 4 9
9 9 15 0 161 151 161 166 0 7 11 16 25 20 13 3 27 14 30 24 7 20 112 130 119
123 2 -2 26 18 54 46 27 27 48 51 46 54 -2 2 608 616 1356 1365 748 748 1360
1364 1360 1369 0 4 20 28 45 52 25 24 45 50 45 57 0 6 6 14 14 17 18 7 101
176 100 205 0 12 4 22 8 22 4 0 8 34 8 75 0 48 -4 75 -11 75 -6 0 -8 7 -5 16
3 8 -3 32 -13 52 -10 20 -16 43 -14 50 3 6 0 12 -6 12 -6 0 -11 7 -11 15 0 8
-4 15 -9 15 -5 0 -14 14 -21 30 -7 17 -16 30 -21 30 -5 0 -9 6 -9 13 0 7 -8
20 -17 29 -10 8 -25 25 -34 37 -31 41 -111 121 -121 121 -5 0 -8 6 -5 14 5 13
-43 66 -60 66 -5 0 -491 484 -1082 1075 -591 591 -1077 1075 -1081 1075 -12 0
-89 80 -107 111 -9 15 -20 26 -24 23 -9 -5 -83 66 -76 73 7 6 -30 43 -44 43
-11 0 -48 40 -49 53 0 9 -69 76 -112 110 -18 13 -368 360 -778 771 -410 410
-749 746 -753 746 -4 0 -30 23 -57 50 -27 28 -53 50 -58 50 -5 0 -19 11 -32
25 -13 14 -29 25 -36 25 -7 0 -14 3 -16 8 -9 21 -165 103 -208 109 -90 13
-130 14 -130 4z m145 -265 c11 -5 32 -12 47 -18 15 -5 29 -16 32 -25 3 -8 10
-12 14 -9 5 3 20 -6 32 -19 13 -14 27 -25 32 -25 13 0 358 -350 358 -363 0 -7
9 -19 21 -27 12 -8 48 -43 82 -77 33 -35 66 -63 73 -63 7 0 19 -12 26 -27 7
-14 21 -31 32 -37 28 -17 113 -102 126 -126 6 -12 14 -19 17 -16 7 6 58 -45
58 -58 0 -6 14 -20 32 -31 17 -11 36 -30 42 -43 6 -12 22 -27 35 -33 13 -7 27
-22 30 -34 3 -12 19 -28 35 -35 17 -6 31 -18 33 -26 4 -18 237 -254 251 -254
6 0 8 -2 6 -5 -3 -2 365 -375 818 -827 452 -453 823 -827 823 -832 0 -13 48
-55 54 -48 3 3 6 0 6 -7 0 -16 329 -347 341 -344 9 3 13 -12 10 -30 -1 -5 2
-6 7 -3 4 2 16 -6 26 -20 11 -13 25 -24 32 -24 8 0 14 -6 14 -13 0 -16 128
-139 139 -133 4 3 15 -10 24 -29 9 -18 29 -39 44 -47 15 -7 28 -18 28 -25 0
-6 156 -167 348 -358 191 -191 347 -353 347 -361 0 -8 5 -14 10 -14 13 0 51
-61 44 -72 -3 -4 -1 -8 4 -8 5 0 13 -10 17 -22 10 -33 13 -158 3 -164 -4 -3
-8 -14 -8 -25 0 -11 -13 -39 -29 -63 -28 -41 -2751 -2772 -2751 -2759 0 4 -11
-4 -25 -17 -14 -13 -25 -30 -25 -37 0 -8 -4 -12 -9 -9 -4 3 -39 -26 -76 -64
-37 -39 -70 -70 -73 -71 -4 -1 -36 -34 -72 -75 -84 -94 -552 -570 -567 -575
-10 -4 -113 -97 -113 -102 0 -2 -106 -109 -235 -238 -129 -129 -235 -238 -235
-242 0 -18 -212 -213 -251 -231 -10 -5 -19 -13 -19 -18 0 -5 -5 -6 -10 -3 -6
3 -13 -1 -16 -9 -3 -9 -10 -14 -14 -11 -5 3 -11 1 -15 -4 -3 -6 -12 -8 -20 -5
-8 4 -17 0 -20 -7 -6 -16 -112 -16 -128 0 -5 5 -16 7 -23 4 -8 -3 -14 -1 -14
5 0 5 -11 13 -25 16 -14 4 -25 11 -25 16 0 6 -7 10 -15 10 -9 0 -18 7 -21 15
-4 8 -11 15 -18 15 -15 0 -116 97 -108 104 3 3 1 6 -5 6 -5 0 -169 160 -364
355 -195 195 -354 355 -353 355 1 0 -22 24 -53 53 -106 102 -143 140 -143 150
0 6 -2 8 -5 5 -6 -6 -167 155 -173 172 -2 6 -8 8 -13 4 -5 -3 -9 3 -9 12 0 10
-2 15 -5 12 -3 -3 -40 31 -83 76 -42 44 -81 84 -87 88 -5 3 -129 127 -275 274
-146 146 -273 274 -283 283 -10 9 -93 91 -185 184 -91 92 -174 170 -184 173
-10 3 -18 11 -18 17 0 7 -173 185 -385 397 -212 212 -385 381 -385 377 0 -4
-22 18 -49 51 -27 32 -74 81 -106 108 -66 57 -1096 1084 -1087 1084 3 0 -5 12
-19 27 -14 16 -34 46 -45 68 -10 22 -22 42 -25 45 -8 8 -5 143 4 158 5 6 5 17
2 22 -3 6 -2 10 3 10 5 0 17 16 26 35 9 19 21 35 26 35 5 0 11 9 15 19 3 11
163 177 355 369 193 192 350 354 350 360 0 5 16 19 35 31 19 11 35 27 35 35 0
9 10 21 23 27 30 17 137 123 137 138 0 6 5 11 10 11 13 0 67 52 69 65 0 6 5
10 10 10 13 0 341 331 341 344 0 6 6 11 14 11 8 0 22 12 31 28 9 15 444 454
966 977 522 522 949 955 949 962 0 7 10 15 23 18 12 4 33 24 46 45 13 21 30
36 37 33 7 -2 15 5 19 17 9 28 43 62 55 55 5 -3 11 3 14 13 7 22 145 165 204
210 23 19 42 40 42 48 0 8 9 18 19 22 23 8 171 150 171 164 0 5 5 6 11 2 7 -4
10 -1 7 6 -7 22 390 410 418 410 5 0 21 8 34 18 14 9 38 22 55 27 33 12 159
12 190 1z"/>
<path d="M4908 9167 c-53 -21 -95 -44 -129 -69 -20 -16 -40 -28 -44 -28 -13 0
-81 -56 -137 -115 -32 -33 -62 -60 -67 -60 -13 0 -333 -322 -329 -332 2 -4 -9
-14 -24 -21 -16 -7 -28 -19 -28 -26 0 -7 -11 -23 -25 -36 -14 -13 -25 -20 -25
-16 0 5 -395 -387 -877 -870 -483 -483 -881 -879 -885 -880 -5 -1 -13 -2 -19
-3 -5 0 -8 -5 -4 -10 5 -10 -100 -121 -114 -121 -4 0 -18 -11 -31 -25 -13 -14
-20 -25 -16 -25 4 0 1 -6 -6 -14 -7 -8 -16 -12 -20 -10 -7 4 -58 -53 -58 -64
0 -4 -10 -12 -22 -17 -12 -6 -26 -19 -32 -30 -6 -11 -18 -24 -26 -29 -31 -18
-932 -922 -941 -943 -4 -13 -15 -23 -24 -23 -8 0 -15 -4 -15 -9 0 -4 -20 -29
-45 -53 -25 -25 -45 -48 -45 -52 0 -7 -40 -67 -51 -76 -8 -7 -22 -44 -21 -52
1 -5 -2 -8 -7 -8 -8 0 -20 -26 -26 -55 -1 -5 -4 -17 -8 -25 -21 -55 -26 -108
-13 -135 6 -11 9 -30 7 -42 -1 -13 3 -23 9 -23 7 0 9 -8 5 -20 -3 -11 -2 -20
3 -20 5 0 12 -8 16 -17 3 -10 15 -33 26 -50 11 -18 17 -33 15 -33 -5 0 4 -11
56 -70 17 -19 38 -46 47 -60 9 -14 102 -109 207 -212 106 -104 191 -188 190
-188 -2 0 30 -33 69 -73 39 -40 74 -71 79 -69 4 2 7 -1 7 -5 0 -5 142 -150
315 -323 173 -173 313 -316 311 -318 -6 -6 27 -42 39 -42 11 -1 170 -158 170
-169 0 -10 91 -101 101 -101 12 0 351 -339 346 -345 -3 -3 2 -5 12 -5 9 0 14
-5 11 -10 -7 -11 40 -65 55 -65 9 0 60 -53 60 -62 0 -6 118 -120 154 -148 14
-11 26 -24 26 -29 0 -5 24 -31 53 -58 68 -64 62 -57 105 -104 20 -22 45 -43
55 -47 9 -4 20 -15 24 -24 8 -22 1223 -1239 1234 -1236 4 1 23 -15 43 -37 20
-22 43 -40 51 -40 8 0 15 -5 15 -10 0 -6 11 -15 25 -20 14 -5 25 -14 25 -20 0
-5 7 -10 16 -10 8 0 35 -12 59 -26 24 -14 47 -25 50 -25 3 1 7 0 10 0 3 -1 13
-2 23 -4 9 -1 25 -5 35 -10 29 -12 58 -12 102 0 22 6 46 10 53 7 6 -2 12 2 12
9 0 7 3 9 6 6 4 -3 16 -1 28 5 11 7 27 13 35 14 7 2 24 13 37 25 13 12 24 18
24 13 1 -5 9 1 20 14 10 13 23 23 27 23 4 0 18 9 31 19 12 11 25 20 28 20 10
0 3407 3403 3436 3442 16 20 36 39 46 42 9 3 22 16 27 28 6 12 19 26 30 32 24
14 49 36 39 36 -4 0 24 33 62 73 91 95 128 143 140 180 4 9 11 17 17 17 6 0 7
3 4 6 -4 4 2 19 13 34 11 15 17 30 13 34 -3 3 -1 6 5 6 7 0 12 11 12 25 0 14
3 25 8 25 14 0 5 135 -11 174 -9 21 -14 42 -11 47 3 5 1 9 -4 9 -5 0 -12 8
-16 18 -7 21 -28 55 -39 63 -5 3 -9 10 -9 15 -1 14 -38 59 -104 128 -34 35
-63 68 -65 74 -6 17 -1028 1039 -1071 1072 -21 15 -35 30 -32 32 3 3 -9 16
-26 29 -42 32 -140 131 -140 141 0 4 -4 8 -9 8 -6 0 -505 496 -1110 1101 -606
606 -1101 1098 -1101 1094 0 -3 -26 20 -58 52 -62 61 -125 113 -139 113 -4 0
-21 11 -36 26 -15 14 -31 23 -35 20 -5 -3 -14 3 -22 14 -7 10 -19 16 -27 13
-7 -3 -13 1 -13 8 0 7 -3 10 -6 6 -3 -3 -18 -1 -33 5 -34 13 -152 16 -183 5z
m138 -1095 c11 -5 25 -7 32 -5 6 3 12 -1 12 -7 0 -7 6 -10 14 -7 10 4 350
-329 1000 -980 542 -542 986 -991 986 -996 0 -6 2 -8 5 -5 7 7 919 -908 923
-927 2 -8 7 -15 12 -15 14 0 52 -69 47 -85 -3 -7 0 -18 7 -24 14 -12 14 -58
-1 -86 -6 -11 -8 -26 -5 -34 2 -7 1 -16 -4 -20 -5 -3 -16 -19 -25 -35 -17 -30
-1188 -1209 -1217 -1225 -26 -14 -572 -563 -567 -570 2 -4 -11 -17 -29 -29
-18 -12 -273 -263 -567 -557 -293 -293 -535 -532 -538 -530 -2 3 -16 -4 -31
-15 -15 -11 -30 -17 -33 -13 -4 3 -12 1 -19 -4 -17 -14 -79 -14 -95 -1 -7 6
-13 8 -13 4 0 -4 -15 1 -32 11 -18 9 -35 17 -38 16 -11 -3 -2917 2913 -2923
2932 -4 11 -7 25 -8 30 0 6 -5 15 -11 22 -5 7 -7 17 -3 23 3 5 2 10 -4 10 -7
0 -7 8 -2 23 5 12 5 31 1 42 -4 11 -3 23 2 26 5 3 11 12 12 20 8 39 45 79 363
398 189 189 343 350 343 359 0 8 3 13 6 9 4 -3 15 4 25 16 10 12 18 19 19 16
0 -4 92 86 205 198 113 113 203 209 200 213 -3 5 8 14 24 21 16 7 28 16 26 20
-7 10 1716 1729 1726 1723 5 -3 9 0 9 5 0 6 7 11 15 11 8 0 15 5 15 11 0 6 9
9 20 6 10 -3 24 0 29 7 12 14 59 13 87 -2z"/>
<path d="M5407 6802 c-6 -2 -19 -6 -27 -9 -8 -4 -21 -5 -27 -4 -7 1 -13 -2
-13 -7 0 -9 -37 -25 -52 -23 -5 1 -8 -3 -8 -9 0 -5 -5 -10 -10 -10 -14 0 -72
-41 -83 -57 -4 -7 -17 -13 -27 -13 -11 0 -20 -4 -20 -9 0 -15 -295 -305 -308
-303 -7 2 -11 -1 -10 -5 3 -10 -52 -79 -61 -77 -12 3 -31 -8 -26 -15 2 -4 -21
-32 -52 -62 -30 -30 -74 -73 -96 -96 -22 -24 -46 -43 -53 -43 -7 0 -15 -8 -19
-19 -7 -23 -51 -72 -58 -65 -3 3 -13 -8 -23 -25 -16 -27 -23 -33 -44 -34 -8 0
-41 -37 -33 -37 7 0 -22 -31 -240 -251 -87 -87 -162 -157 -166 -155 -4 3 -18
-13 -31 -35 -14 -21 -30 -39 -36 -39 -12 0 -464 -449 -464 -461 0 -4 -25 -31
-55 -60 -30 -30 -55 -58 -55 -62 0 -4 -11 -20 -25 -35 -14 -15 -25 -32 -25
-39 0 -7 -5 -13 -11 -13 -5 0 -7 -4 -4 -10 3 -5 -3 -15 -13 -21 -12 -7 -17
-19 -14 -31 2 -10 -1 -18 -7 -18 -6 0 -10 -3 -9 -7 0 -5 -1 -15 -4 -23 -28
-81 -34 -145 -17 -166 6 -7 9 -18 8 -26 -2 -7 2 -22 8 -33 6 -11 12 -24 13
-30 9 -40 48 -94 104 -145 22 -19 47 -43 55 -52 9 -10 21 -18 28 -18 7 0 13
-4 13 -10 0 -5 7 -10 15 -10 8 0 15 -4 15 -8 0 -4 8 -8 18 -9 33 -3 77 -11 92
-16 38 -13 60 -14 78 -1 11 7 22 11 25 8 8 -8 75 16 120 43 20 13 37 20 37 17
0 -9 54 27 63 43 4 7 12 13 18 13 5 0 37 28 72 62 34 34 64 60 66 58 7 -5 531
523 531 536 0 7 9 16 20 19 11 4 28 18 38 33 21 33 49 62 60 62 9 0 62 53 62
62 0 10 344 352 379 378 37 25 100 91 101 102 0 4 118 126 263 271 248 248
278 281 294 317 3 8 12 19 20 23 7 4 13 15 13 22 0 8 4 15 10 15 5 0 7 7 4 15
-4 8 -1 15 5 15 6 0 11 7 11 15 0 8 4 15 9 15 5 0 7 9 4 20 -3 11 -1 20 5 20
5 0 12 15 15 33 3 17 8 47 11 65 3 17 1 32 -4 32 -6 0 -10 15 -10 34 0 19 -10
56 -22 83 -12 26 -22 51 -22 55 -1 8 -26 36 -95 105 -47 48 -116 94 -146 98
-5 1 -12 3 -15 5 -14 8 -142 17 -163 12z"/>
<path d="M6388 5867 c-7 -7 -28 -12 -45 -11 -18 1 -33 -2 -33 -6 0 -4 -12 -11
-27 -15 -16 -3 -45 -17 -65 -31 -21 -13 -42 -24 -48 -24 -5 0 -15 -9 -22 -20
-7 -11 -18 -20 -23 -20 -14 0 -95 -77 -88 -83 2 -3 -6 -8 -18 -12 -31 -10
-1739 -1720 -1739 -1741 0 -10 -3 -15 -6 -11 -7 7 -54 -46 -54 -62 0 -6 -4
-11 -9 -11 -10 0 -34 -38 -47 -72 -3 -10 -10 -18 -15 -18 -4 0 -6 -9 -4 -20 2
-11 0 -20 -6 -20 -5 0 -9 -8 -9 -18 0 -10 -3 -22 -7 -26 -10 -9 -11 -136 -1
-142 4 -3 8 -18 8 -34 0 -16 5 -32 10 -35 6 -4 8 -11 5 -16 -4 -5 -1 -9 4 -9
6 0 11 -7 11 -15 0 -9 7 -18 15 -21 8 -4 15 -11 15 -18 0 -15 119 -136 134
-136 6 0 17 -9 24 -21 7 -12 16 -18 19 -15 4 3 12 1 20 -5 7 -6 13 -8 13 -5 0
4 8 2 18 -3 57 -31 214 -30 233 1 5 7 9 9 9 4 0 -5 7 -3 15 4 8 7 15 9 15 4 0
-5 4 -4 8 1 4 6 27 21 52 34 56 30 92 57 132 99 17 17 36 32 42 32 9 0 581
573 769 770 29 30 56 54 62 55 5 0 20 16 33 35 13 19 29 35 35 35 7 0 11 8 11
18 -1 10 5 17 17 17 11 0 19 5 19 11 0 6 7 17 15 25 8 9 15 13 15 10 0 -11
108 99 119 122 7 12 18 22 26 22 8 0 15 7 15 15 0 8 7 15 15 15 8 0 15 5 15
11 0 12 25 39 37 39 10 0 83 77 83 87 1 11 51 58 78 72 12 6 22 18 22 26 0 8
6 15 13 15 12 0 78 67 127 129 13 17 30 31 37 31 7 0 13 7 13 15 0 8 4 15 9
15 4 0 30 20 57 45 26 25 44 45 39 45 -4 0 15 23 43 50 29 28 52 55 52 59 0 5
13 22 29 37 17 15 28 31 26 35 -3 4 2 12 10 19 8 7 15 21 15 31 0 11 5 19 11
19 6 0 9 7 5 15 -3 8 -1 15 4 15 6 0 10 14 10 30 0 17 4 30 10 30 19 0 0 188
-21 216 -5 6 -6 14 -2 17 3 4 1 7 -5 7 -7 0 -12 7 -12 15 0 9 -7 18 -15 21 -8
4 -15 11 -15 18 0 6 -29 41 -65 76 -36 35 -65 60 -65 55 0 -6 -5 -3 -10 5 -5
8 -13 15 -17 16 -4 0 -26 8 -48 18 -22 10 -54 19 -70 20 -17 2 -40 8 -52 14
-17 9 -25 9 -35 -1z"/>
</g>
</svg>
